<mxfile host="app.diagrams.net" agent="Mozilla/5.0 (Windows NT 10.0; Win64; x64) AppleWebKit/537.36 (KHTML, like Gecko) Chrome/138.0.0.0 Safari/537.36 Edg/138.0.0.0" version="28.0.7">
  <diagram name="Page-1" id="CiuL9g2HecUed-ZDlshw">
    <mxGraphModel dx="504" dy="1715" grid="1" gridSize="10" guides="1" tooltips="1" connect="1" arrows="1" fold="1" page="1" pageScale="1" pageWidth="850" pageHeight="1100" math="0" shadow="0">
      <root>
        <mxCell id="0" />
        <mxCell id="1" parent="0" />
        <mxCell id="L8drwc85gj7fB2Rk6A7Q-23" style="edgeStyle=none;curved=1;rounded=0;orthogonalLoop=1;jettySize=auto;html=1;exitX=0.5;exitY=1;exitDx=0;exitDy=0;entryX=0.5;entryY=0;entryDx=0;entryDy=0;fontSize=12;startSize=8;endSize=8;" edge="1" parent="1" source="L8drwc85gj7fB2Rk6A7Q-1" target="L8drwc85gj7fB2Rk6A7Q-2">
          <mxGeometry relative="1" as="geometry" />
        </mxCell>
        <mxCell id="L8drwc85gj7fB2Rk6A7Q-1" value="Plan" style="ellipse;whiteSpace=wrap;html=1;" vertex="1" parent="1">
          <mxGeometry x="340" y="40" width="120" height="80" as="geometry" />
        </mxCell>
        <mxCell id="L8drwc85gj7fB2Rk6A7Q-24" style="edgeStyle=none;curved=1;rounded=0;orthogonalLoop=1;jettySize=auto;html=1;exitX=0.5;exitY=1;exitDx=0;exitDy=0;entryX=0.5;entryY=0;entryDx=0;entryDy=0;fontSize=12;startSize=8;endSize=8;" edge="1" parent="1" source="L8drwc85gj7fB2Rk6A7Q-2" target="L8drwc85gj7fB2Rk6A7Q-3">
          <mxGeometry relative="1" as="geometry" />
        </mxCell>
        <mxCell id="L8drwc85gj7fB2Rk6A7Q-2" value="Develop" style="ellipse;whiteSpace=wrap;html=1;" vertex="1" parent="1">
          <mxGeometry x="340" y="160" width="120" height="80" as="geometry" />
        </mxCell>
        <mxCell id="L8drwc85gj7fB2Rk6A7Q-13" style="edgeStyle=none;curved=1;rounded=0;orthogonalLoop=1;jettySize=auto;html=1;exitX=0.5;exitY=1;exitDx=0;exitDy=0;entryX=0.5;entryY=0;entryDx=0;entryDy=0;fontSize=12;startSize=8;endSize=8;" edge="1" parent="1" source="L8drwc85gj7fB2Rk6A7Q-3" target="L8drwc85gj7fB2Rk6A7Q-4">
          <mxGeometry relative="1" as="geometry" />
        </mxCell>
        <mxCell id="L8drwc85gj7fB2Rk6A7Q-3" value="Build" style="ellipse;whiteSpace=wrap;html=1;" vertex="1" parent="1">
          <mxGeometry x="340" y="290" width="120" height="80" as="geometry" />
        </mxCell>
        <mxCell id="L8drwc85gj7fB2Rk6A7Q-15" style="edgeStyle=none;curved=1;rounded=0;orthogonalLoop=1;jettySize=auto;html=1;exitX=0.5;exitY=1;exitDx=0;exitDy=0;entryX=0.5;entryY=0;entryDx=0;entryDy=0;fontSize=12;startSize=8;endSize=8;" edge="1" parent="1" source="L8drwc85gj7fB2Rk6A7Q-4" target="L8drwc85gj7fB2Rk6A7Q-5">
          <mxGeometry relative="1" as="geometry" />
        </mxCell>
        <mxCell id="L8drwc85gj7fB2Rk6A7Q-4" value="Test" style="ellipse;whiteSpace=wrap;html=1;" vertex="1" parent="1">
          <mxGeometry x="340" y="400" width="120" height="80" as="geometry" />
        </mxCell>
        <mxCell id="L8drwc85gj7fB2Rk6A7Q-17" style="edgeStyle=none;curved=1;rounded=0;orthogonalLoop=1;jettySize=auto;html=1;exitX=0.5;exitY=1;exitDx=0;exitDy=0;entryX=0.5;entryY=0;entryDx=0;entryDy=0;fontSize=12;startSize=8;endSize=8;" edge="1" parent="1" source="L8drwc85gj7fB2Rk6A7Q-5" target="L8drwc85gj7fB2Rk6A7Q-6">
          <mxGeometry relative="1" as="geometry" />
        </mxCell>
        <mxCell id="L8drwc85gj7fB2Rk6A7Q-5" value="Release" style="ellipse;whiteSpace=wrap;html=1;" vertex="1" parent="1">
          <mxGeometry x="340" y="520" width="120" height="80" as="geometry" />
        </mxCell>
        <mxCell id="L8drwc85gj7fB2Rk6A7Q-19" style="edgeStyle=none;curved=1;rounded=0;orthogonalLoop=1;jettySize=auto;html=1;exitX=0.5;exitY=1;exitDx=0;exitDy=0;entryX=0.5;entryY=0;entryDx=0;entryDy=0;fontSize=12;startSize=8;endSize=8;" edge="1" parent="1" source="L8drwc85gj7fB2Rk6A7Q-6" target="L8drwc85gj7fB2Rk6A7Q-7">
          <mxGeometry relative="1" as="geometry" />
        </mxCell>
        <mxCell id="L8drwc85gj7fB2Rk6A7Q-6" value="Deploy" style="ellipse;whiteSpace=wrap;html=1;" vertex="1" parent="1">
          <mxGeometry x="340" y="630" width="120" height="80" as="geometry" />
        </mxCell>
        <mxCell id="L8drwc85gj7fB2Rk6A7Q-21" style="edgeStyle=none;curved=1;rounded=0;orthogonalLoop=1;jettySize=auto;html=1;exitX=0.5;exitY=1;exitDx=0;exitDy=0;entryX=0.5;entryY=0;entryDx=0;entryDy=0;fontSize=12;startSize=8;endSize=8;" edge="1" parent="1" source="L8drwc85gj7fB2Rk6A7Q-7" target="L8drwc85gj7fB2Rk6A7Q-8">
          <mxGeometry relative="1" as="geometry" />
        </mxCell>
        <mxCell id="L8drwc85gj7fB2Rk6A7Q-7" value="Operate" style="ellipse;whiteSpace=wrap;html=1;" vertex="1" parent="1">
          <mxGeometry x="340" y="750" width="120" height="80" as="geometry" />
        </mxCell>
        <mxCell id="L8drwc85gj7fB2Rk6A7Q-8" value="Monitor" style="ellipse;whiteSpace=wrap;html=1;" vertex="1" parent="1">
          <mxGeometry x="340" y="870" width="120" height="80" as="geometry" />
        </mxCell>
        <mxCell id="L8drwc85gj7fB2Rk6A7Q-9" value="DEVOPS LIFECYCLE-VISUAL DIAGRAM" style="whiteSpace=wrap;html=1;" vertex="1" parent="1">
          <mxGeometry x="230" y="-150" width="330" height="60" as="geometry" />
        </mxCell>
      </root>
    </mxGraphModel>
  </diagram>
</mxfile>
